HIERARCHY
ROOT SpineBase
{
  OFFSET 0.000000 0.000000 0.000000
  CHANNELS 6 Xposition Yposition Zposition Zrotation Xrotation Yrotation
  JOINT SpineMid
  {
    OFFSET 0.000000 27.649055 0.000000
    CHANNELS 3 Zrotation Xrotation Yrotation
    JOINT SpineShoulder
    {
      OFFSET -0.071788 20.557200 -0.436753
      CHANNELS 3 Zrotation Xrotation Yrotation
      JOINT Neck
      {
        OFFSET -0.013372 6.843092 -0.453280
        CHANNELS 3 Zrotation Xrotation Yrotation
        JOINT Head
        {
          OFFSET -4.779629 10.621428 2.903865
          CHANNELS 3 Zrotation Xrotation Yrotation
          End Site
          {
            OFFSET 0 0 0
          }
        }
      }
      JOINT ShoulderLeft
      {
        OFFSET -15.544237 -7.949017 2.861434
        CHANNELS 3 Zrotation Xrotation Yrotation
        JOINT ElbowLeft
        {
          OFFSET 0.231100 -23.036217 2.544563
          CHANNELS 3 Zrotation Xrotation Yrotation
          JOINT WristLeft
          {
            OFFSET -0.956612 -23.329260 -3.808818
            CHANNELS 3 Zrotation Xrotation Yrotation
            JOINT HandLeft
            {
              OFFSET 0.996214 -3.005090 -0.629314
              CHANNELS 3 Zrotation Xrotation Yrotation
              JOINT HandTipLeft
              {
                OFFSET 2.840593 -7.019796 -0.869815
                CHANNELS 3 Zrotation Xrotation Yrotation
                End Site
                {
                  OFFSET 0 0 0
                }
              }
              JOINT ThumbLeft
              {
                OFFSET 2.648654 1.348691 -4.158753
                CHANNELS 3 Zrotation Xrotation Yrotation
                End Site
                {
                  OFFSET 0 0 0
                }
              }
            }
          }
        }
      }
      JOINT ShoulderRight
      {
        OFFSET 9.732812 -2.038185 -6.846962
        CHANNELS 3 Zrotation Xrotation Yrotation
        JOINT ElbowRight
        {
          OFFSET -0.692752 -12.131839 -16.777158
          CHANNELS 3 Zrotation Xrotation Yrotation
          JOINT WristRight
          {
            OFFSET -15.309767 14.981079 -10.476430
            CHANNELS 3 Zrotation Xrotation Yrotation
            JOINT HandRight
            {
              OFFSET -3.322669 5.112132 -1.388798
              CHANNELS 3 Zrotation Xrotation Yrotation
              JOINT HandTipRight
              {
                OFFSET -2.289770 4.976451 -0.795316
                CHANNELS 3 Zrotation Xrotation Yrotation
                End Site
                {
                  OFFSET 0 0 0
                }
              }
              JOINT ThumbRight
              {
                OFFSET -2.266941 -2.303063 -0.721150
                CHANNELS 3 Zrotation Xrotation Yrotation
                End Site
                {
                  OFFSET 0 0 0
                }
              }
            }
          }
        }
      }
    }
  }
  JOINT HipLeft
  {
    OFFSET -5.344512 -0.249485 -0.017265
    CHANNELS 3 Zrotation Xrotation Yrotation
    JOINT KneeLeft
    {
      OFFSET 6.518116 -31.782519 -0.411995
      CHANNELS 3 Zrotation Xrotation Yrotation
      JOINT AnkleLeft
      {
        OFFSET 5.455327 -30.990394 4.912375
        CHANNELS 3 Zrotation Xrotation Yrotation
        JOINT FootLeft
        {
          OFFSET 0.070998 -3.057939 -8.624459
          CHANNELS 3 Zrotation Xrotation Yrotation
          End Site
          {
            OFFSET 0 0 0
          }
        }
      }
    }
  }
  JOINT HipRight
  {
    OFFSET 4.915764 1.910112 -6.076396
    CHANNELS 3 Zrotation Xrotation Yrotation
    JOINT KneeRight
    {
      OFFSET 9.079123 -26.763360 -1.096577
      CHANNELS 3 Zrotation Xrotation Yrotation
      JOINT AnkleRight
      {
        OFFSET 5.473600 -36.039126 4.987442
        CHANNELS 3 Zrotation Xrotation Yrotation
        JOINT FootRight
        {
          OFFSET -5.654116 -7.256353 1.966632
          CHANNELS 3 Zrotation Xrotation Yrotation
          End Site
          {
            OFFSET 0 0 0
          }
        }
      }
    }
  }
}
MOTION
Frames: 12
Frame Time: 0.033333
27.600033 69.034053 364.056173 -0.000000 0.000000 30.563667 -0.000000 0.000000 -30.563667 -0.000000 0.000000 0.000000 -0.000000 0.000000 0.000000 0.000000 0.000000 0.000000 -0.000000 0.000000 0.000000 -0.000000 0.000000 0.000000 -0.000000 0.000000 0.000000 -0.000000 0.000000 0.000000 0.000000 0.000000 0.000000 0.000000 0.000000 0.000000 -0.000000 0.000000 0.000000 -0.000000 0.000000 0.000000 -0.000000 0.000000 0.000000 -0.000000 0.000000 0.000000 0.000000 0.000000 0.000000 0.000000 0.000000 0.000000 -0.000000 0.000000 -30.563667 -0.000000 0.000000 0.000000 -0.000000 0.000000 0.000000 0.000000 0.000000 0.000000 -0.000000 0.000000 -30.563667 -0.000000 0.000000 0.000000 -0.000000 0.000000 0.000000 0.000000 0.000000 0.000000
27.655827 69.067627 364.088625 0.003663 -0.037245 30.780554 0.015913 0.033873 -30.780558 -0.000000 0.000000 0.000000 -0.897994 0.372782 0.417286 0.000000 0.000000 0.000000 -0.000000 0.000000 0.000000 -0.000000 0.000000 0.000000 -5.161947 1.774553 1.770629 1.508183 -2.861114 -1.733599 0.000000 0.000000 0.000000 0.000000 0.000000 0.000000 -0.000000 0.000000 0.000000 -0.000000 0.000000 0.000000 -0.000000 0.000000 0.000000 -1.031080 -0.976665 -0.624700 0.000000 0.000000 0.000000 0.000000 0.000000 0.000000 0.015913 0.033873 -30.780558 -0.000000 0.000000 0.000000 -1.632356 1.742449 4.476525 0.000000 0.000000 0.000000 -0.124892 0.863437 -30.539434 0.542826 -0.642925 -0.236975 -1.251018 10.694288 -8.709501 0.000000 0.000000 0.000000
27.694494 69.095016 364.130094 -0.001549 -0.086659 30.957804 0.045906 0.073518 -30.957834 -0.000000 0.000000 0.000000 -1.679687 0.691902 0.784624 0.000000 0.000000 0.000000 0.838082 -1.095403 0.089497 -0.836523 1.096593 -0.073479 -8.647997 2.866809 3.041455 1.616621 -4.955687 -3.045740 0.000000 0.000000 0.000000 0.000000 0.000000 0.000000 -0.000000 0.000000 0.000000 -0.445387 0.856679 0.572619 0.832489 -1.948951 -1.147626 -2.102832 -0.712956 -0.493252 0.000000 0.000000 0.000000 0.000000 0.000000 0.000000 -0.238004 1.217405 -30.772363 0.829253 -0.837532 -0.176212 -3.010803 3.011421 8.037440 0.000000 0.000000 0.000000 -0.204144 1.628146 -30.502746 1.787780 -1.522128 -0.359621 -1.350666 20.843755 -16.934836 0.000000 0.000000 0.000000
27.716035 69.116220 364.180580 -0.015692 -0.148237 31.093401 0.089993 0.118835 -31.093515 -0.000000 0.000000 0.000000 -2.346214 0.960375 1.100971 0.000000 0.000000 0.000000 1.177014 -1.546615 0.130180 -0.246394 1.063117 -0.251398 -11.931208 3.995767 4.150052 1.043429 -6.475536 -4.069540 0.000000 0.000000 0.000000 0.000000 0.000000 0.000000 -0.000000 0.000000 0.000000 -0.530938 1.071287 0.736790 1.044158 -2.731491 -1.624708 -2.547081 -0.793008 -0.494153 0.000000 0.000000 0.000000 0.000000 0.000000 0.000000 -0.267436 1.696898 -30.833531 1.115920 -1.171705 -0.242909 -4.129291 3.921730 10.813246 0.000000 0.000000 0.000000 -0.236809 2.282383 -30.455839 2.441113 -2.113709 -0.488973 0.443437 28.193927 -23.661752 0.000000 0.000000 0.000000
27.720450 69.131240 364.240084 -0.038790 -0.221926 31.185841 0.148102 0.169770 -31.186136 -0.000000 0.000000 0.000000 -2.898535 1.180770 1.365493 0.000000 0.000000 0.000000 1.462059 -1.933235 0.166449 -0.429705 1.371646 -0.291813 -13.545582 4.478527 4.773408 0.238449 -7.549982 -4.848522 0.000000 0.000000 0.000000 0.000000 0.000000 0.000000 -0.000000 0.000000 0.000000 -0.528571 1.155718 0.826519 1.117074 -3.345368 -2.021619 -2.574032 -0.733155 -0.364659 0.000000 0.000000 0.000000 0.000000 0.000000 0.000000 -0.234750 2.074836 -30.867289 1.306337 -1.438618 -0.294945 -5.000353 4.559416 12.918351 0.000000 0.000000 0.000000 -0.222243 2.816324 -30.400862 2.933667 -2.582466 -0.588123 2.729523 32.414080 -28.185825 0.000000 0.000000 0.000000
27.707739 69.140076 364.308604 -0.070829 -0.307627 31.234172 0.220080 0.226310 -31.234797 -0.000000 0.000000 0.000000 -3.337328 1.355170 1.577487 0.000000 0.000000 0.000000 1.692938 -2.255172 0.197253 -0.688479 1.669796 -0.304047 -14.381693 4.726319 5.115999 -0.513266 -8.262544 -5.389276 0.000000 0.000000 0.000000 0.000000 0.000000 0.000000 -0.000000 0.000000 0.000000 -0.434439 1.108111 0.841790 1.051079 -3.758294 -2.321905 -2.188591 -0.557205 -0.131698 0.000000 0.000000 0.000000 0.000000 0.000000 0.000000 -0.139514 2.343431 -30.874618 1.395490 -1.632349 -0.332233 -5.641879 4.984970 14.443519 0.000000 0.000000 0.000000 -0.160120 3.222385 -30.339781 3.264875 -2.922549 -0.659135 4.710845 33.694121 -30.003207 0.000000 0.000000 0.000000
27.687997 69.135127 364.386729 -0.089542 -0.411901 31.246483 0.290218 0.305703 -31.247579 0.380893 -0.891758 0.026438 -4.103116 2.397846 1.801360 0.000000 0.000000 0.000000 1.507931 -1.581576 0.174309 -1.042810 1.734987 -0.280684 -15.297488 5.103869 5.530560 2.841851 -7.225978 -4.898968 0.000000 0.000000 0.000000 0.000000 0.000000 0.000000 -0.380527 0.891914 -0.020512 -0.099040 0.896326 0.852929 1.065105 -4.580225 -2.878760 -0.933202 0.434161 0.655433 0.000000 0.000000 0.000000 0.000000 0.000000 0.000000 -0.011347 2.579578 -30.853758 1.425560 -1.797171 -0.363867 -8.312287 7.654209 20.192886 0.000000 0.000000 0.000000 -0.269252 2.743377 -30.549479 2.909178 -2.099865 -0.492258 10.756152 31.978594 -29.847732 0.000000 0.000000 0.000000
27.649977 69.133303 364.465534 -0.105927 -0.530925 31.286171 0.034184 -0.404150 -31.288120 0.344311 -0.195133 0.027955 -4.469918 2.675626 1.948809 0.000000 0.000000 0.000000 1.534795 -1.631206 0.179907 -2.005244 2.690414 -0.147841 -14.524330 4.023844 5.079488 0.307154 -9.272674 -6.165861 0.000000 0.000000 0.000000 0.000000 0.000000 0.000000 -0.477018 1.053906 -0.025166 0.176481 0.588528 0.725408 0.583184 -4.621632 -3.054206 -1.046999 1.408535 1.190265 0.000000 0.000000 0.000000 0.000000 0.000000 0.000000 0.163638 2.672232 -30.887136 2.146725 -1.932270 -0.233831 -6.434980 4.688518 14.427879 0.000000 0.000000 0.000000 -0.258239 2.928456 -30.567148 3.092371 -2.137247 -0.493271 10.446424 27.648928 -24.930763 0.000000 0.000000 0.000000
27.583444 69.121825 364.565862 -0.158640 -0.632342 31.150217 0.049952 -0.437358 -31.153949 0.350184 -0.158539 0.026984 -4.510356 2.840717 2.013242 0.000000 0.000000 0.000000 1.590419 -1.697639 0.183953 -2.043484 2.842666 -0.146943 -13.760445 5.331081 5.469319 -1.258413 -8.360387 -5.440631 0.000000 0.000000 0.000000 0.000000 0.000000 0.000000 -0.460073 1.139541 -0.023689 -0.000000 0.000000 0.000000 0.303081 -3.675547 -2.273678 0.539567 1.177867 1.245587 0.000000 0.000000 0.000000 0.000000 0.000000 0.000000 0.407406 2.578037 -30.769893 1.132073 -1.792152 -0.363877 -4.369013 2.453269 11.736643 0.000000 0.000000 0.000000 -0.253676 3.195283 -30.374065 3.480017 -2.222045 -0.493784 9.862402 19.963679 -16.644725 0.000000 0.000000 0.000000
27.476316 69.124258 364.677656 -0.289215 -0.747940 30.773458 0.067427 -0.424365 -30.781789 0.307780 -0.099331 0.018564 -4.146626 2.728610 1.889929 0.000000 0.000000 0.000000 1.772715 -1.698860 0.194197 -2.058498 2.882216 -0.147127 -11.611668 4.888681 4.672227 -3.242157 -7.881604 -4.876191 0.000000 0.000000 0.000000 0.000000 0.000000 0.000000 -0.703939 0.734941 0.588640 1.419028 -0.181184 -0.516518 -1.021239 -3.166938 -2.513789 2.648083 1.903309 1.829612 0.000000 0.000000 0.000000 0.000000 0.000000 0.000000 0.838919 2.205813 -30.450249 0.688283 -1.580395 -0.323224 -4.596852 2.295645 12.378159 0.000000 0.000000 0.000000 0.062778 3.607037 -29.858874 3.721642 -2.660604 -0.583097 7.209540 9.712206 -6.514267 0.000000 0.000000 0.000000
27.389591 69.127408 364.771767 -0.394329 -0.838934 30.619952 0.043680 -0.385455 -30.632885 0.277952 -0.042633 0.010134 -3.708116 2.645915 1.770873 0.000000 0.000000 0.000000 1.936799 -1.741904 0.202629 -2.046190 2.939099 -0.144490 -8.803543 3.449933 3.319782 -3.149641 -5.909598 -3.390597 0.000000 0.000000 0.000000 0.000000 0.000000 0.000000 -0.117526 1.191062 -0.004239 1.596035 -1.418320 -0.306541 -1.743992 -1.770296 -1.749998 3.935026 1.363241 1.656776 0.000000 0.000000 0.000000 0.000000 0.000000 0.000000 1.241426 1.822863 -30.353312 0.248164 -1.363218 -0.279772 -2.670594 -0.721971 7.628382 0.000000 0.000000 0.000000 0.375196 4.082188 -29.544444 4.039873 -3.181903 -0.678856 6.101557 8.540889 -5.558483 0.000000 0.000000 0.000000
27.302503 69.164954 364.853177 -0.542037 -0.902752 30.602402 0.012755 -0.316068 -30.621187 0.204717 0.024418 -0.003291 -2.955445 2.392492 1.536972 0.000000 0.000000 0.000000 2.200569 -1.804460 0.217921 -2.689669 3.508780 -0.019437 -5.000946 1.596041 1.891390 -5.109019 -9.023341 -4.542386 0.000000 0.000000 0.000000 0.000000 0.000000 0.000000 0.343136 0.247630 -0.187574 2.430914 -2.143414 -1.018084 -3.585151 1.278138 -0.011313 8.620056 -0.430634 1.413451 0.000000 0.000000 0.000000 0.000000 0.000000 0.000000 1.566415 2.012759 -30.288164 0.209534 -1.628245 -0.333625 -1.411513 -2.961277 4.180112 0.000000 0.000000 0.000000 0.966722 4.806332 -29.252771 4.364135 -4.099346 -0.859421 4.639481 3.025720 -0.779980 0.000000 0.000000 0.000000
